<svg width="40" height="59" viewBox="0 0 40 59" fill="none" xmlns="http://www.w3.org/2000/svg">
<path d="M9.0682 1.74038C9.21596 2.42373 9.34526 3.10708 9.45607 3.79044C9.51148 4.12288 9.56687 4.47379 9.62228 4.8247C9.64075 4.93551 9.73304 5.45266 9.65916 5.04634C9.6961 5.2495 9.71464 5.45265 9.73311 5.63734C9.89933 7.04099 10.0286 8.4631 10.1025 9.88522C10.2502 12.7479 10.2317 15.6291 10.0285 18.4733C9.97313 19.1751 9.91774 19.877 9.86234 20.5973C9.8254 20.9112 9.80693 21.2437 9.76999 21.5576C9.75152 21.7054 9.73309 21.8531 9.71462 22.0194C9.71462 22.0932 9.69613 22.1671 9.69613 22.2225C9.67766 22.3333 9.69615 22.2779 9.71462 22.0563C9.71462 22.1117 9.69613 22.1671 9.69613 22.2225C9.52991 23.4046 9.27135 24.5681 8.95737 25.7132C8.79115 26.2857 8.60646 26.8583 8.4033 27.4123C8.29249 27.6894 8.20011 27.9664 8.08929 28.2434C8.07082 28.3173 8.0339 28.3727 8.01543 28.4466C8.12625 28.0957 8.07086 28.2988 8.03392 28.3912C7.96005 28.5389 7.90462 28.7051 7.83074 28.8529C7.33208 29.9426 6.75954 30.9768 6.07619 31.9742C5.8915 32.2512 5.68839 32.5282 5.48523 32.7868C5.42983 32.8607 5.31897 32.953 5.5406 32.7129C5.4852 32.7868 5.41132 32.8607 5.35591 32.9346C5.2451 33.0639 5.15272 33.1931 5.0419 33.3224C4.61712 33.8211 4.1739 34.2828 3.6937 34.7445C3.4536 34.9661 3.21351 35.1878 2.95494 35.4094C2.82566 35.5202 2.67789 35.6126 2.56707 35.7234C2.80717 35.4833 2.71488 35.6126 2.62253 35.6864C2.54866 35.7418 2.47473 35.7973 2.38238 35.8527C1.84678 36.2405 1.27429 36.6099 0.683286 36.9239C0.166153 37.2009 -0.129423 37.9212 0.0552669 38.4937C0.129143 38.7154 0.240029 38.937 0.40625 39.1032C0.60941 39.3248 1.0711 39.5465 1.38507 39.5095C2.6225 39.3618 3.85994 39.2879 5.09736 39.3248C5.70684 39.3433 6.29782 39.3803 6.90729 39.4357C7.05505 39.4541 7.22127 39.4726 7.36902 39.4911C7.47983 39.5095 8.0339 39.5834 7.55371 39.5095C7.86768 39.5649 8.18167 39.6019 8.49565 39.6573C9.69613 39.8604 10.8966 40.156 12.0601 40.5253C12.6511 40.71 13.2422 40.9132 13.8147 41.1533C13.944 41.2087 14.0548 41.2456 14.1841 41.301C14.2579 41.338 14.3319 41.3564 14.4057 41.3934C14.0179 41.2456 14.2764 41.338 14.3688 41.3749C14.6643 41.5042 14.9413 41.6335 15.2368 41.7628C16.3635 42.2984 17.4531 42.8894 18.4874 43.5543C19.0045 43.8867 19.5032 44.2191 19.9834 44.5885C20.1127 44.6809 20.2419 44.7732 20.3712 44.8656C20.4266 44.921 20.5005 44.9579 20.5559 45.0133C20.2604 44.7917 20.3897 44.884 20.4635 44.9394C20.7406 45.1611 20.9992 45.3642 21.2578 45.5859C22.1812 46.3616 23.0677 47.2111 23.8803 48.0976C24.3051 48.5594 24.7115 49.0395 25.1178 49.5382C25.1916 49.649 25.284 49.7414 25.3578 49.8522C25.0623 49.5013 25.4133 49.9261 25.4687 50.0184C25.6534 50.277 25.838 50.5355 26.0227 50.7941C26.7984 51.9207 27.5003 53.1027 28.0913 54.3217C28.2391 54.6357 28.3868 54.9496 28.5161 55.2451C28.6269 55.5037 28.3868 54.9312 28.4976 55.2082C28.5345 55.3006 28.5715 55.4114 28.6084 55.5037C28.6638 55.6515 28.7192 55.7992 28.7746 55.947C29.0332 56.6119 29.2548 57.2952 29.4395 57.9786C29.6427 58.6804 30.4369 59.179 31.1387 58.9389C31.4711 58.8281 31.8036 58.625 31.9698 58.311C32.1545 57.9601 32.1729 57.6277 32.1175 57.2398C32.1175 57.2213 32.0621 56.8704 32.099 57.092C32.136 57.3137 32.0806 56.9812 32.0806 56.9628C32.0622 56.8335 32.0436 56.7042 32.0252 56.5749C31.9882 56.2794 31.9513 55.9839 31.9328 55.6884C31.8959 55.2267 31.8589 54.7649 31.8405 54.3032C31.822 53.5829 31.8405 52.8442 31.822 52.1239C31.822 51.2189 31.7666 50.3324 31.6743 49.4274C31.6004 48.744 31.5081 48.0607 31.4157 47.3773C31.3603 46.971 31.3049 46.5647 31.2495 46.1399C31.2311 46.066 31.231 45.9922 31.2125 45.9183C31.1571 45.5674 31.2495 46.1399 31.2125 45.9183C31.1941 45.7151 31.1572 45.5304 31.1387 45.3273C30.9725 44.016 30.8247 42.6862 30.7878 41.3564C30.7693 40.6731 30.7693 40.0082 30.8247 39.3248C30.8431 39.0109 30.8616 38.6784 30.917 38.3644C30.8431 38.7523 30.954 38.1798 30.954 38.1059C30.9909 37.9212 31.0094 37.755 31.0463 37.5703C31.1572 36.9978 31.3234 36.4437 31.5081 35.9081C31.5819 35.668 31.6743 35.4279 31.7666 35.1878C31.8036 35.077 31.8405 34.9662 31.8959 34.8738C31.9144 34.7999 31.9513 34.7445 31.9698 34.6706C32.0991 34.3751 31.9144 34.8184 31.9698 34.6891C32.4131 33.7103 32.9117 32.7683 33.5027 31.8818C33.6689 31.6417 33.909 31.3832 34.0568 31.1246C34.0383 31.1431 33.8536 31.3832 34.0014 31.1985C34.0568 31.1246 34.1122 31.0692 34.1676 30.9953C34.2599 30.8845 34.3523 30.7737 34.4446 30.6629C34.8325 30.2196 35.2388 29.7948 35.6821 29.3885C35.9037 29.1853 36.1438 28.9822 36.3839 28.779C36.5686 28.6313 36.3285 28.8344 36.31 28.8344C36.3839 28.7975 36.4393 28.7236 36.5132 28.6867C36.6425 28.5943 36.7718 28.502 36.8826 28.4097C37.3812 28.0587 37.8984 27.7632 38.4524 27.4862C38.9696 27.2276 39.2651 26.4704 39.0804 25.9163C38.8772 25.3069 38.3785 24.9375 37.7506 24.9005C37.1041 24.8636 36.4577 24.8082 35.8113 24.7343C35.6636 24.7158 35.5158 24.6974 35.3681 24.6789C35.2942 24.6789 35.2203 24.642 35.1464 24.642C35.5158 24.6235 35.2757 24.6604 35.1649 24.642C34.8325 24.5866 34.5001 24.5496 34.1861 24.4942C32.9302 24.2726 31.6928 23.9956 30.4923 23.6446C29.8828 23.4599 29.2918 23.2753 28.7007 23.0536C28.4237 22.9428 28.1467 22.8505 27.8512 22.7397C27.8142 22.7212 27.4264 22.5734 27.4264 22.5734C27.4818 22.5919 27.5372 22.6288 27.5926 22.6473C27.5372 22.6288 27.4818 22.5919 27.4264 22.5734C27.3525 22.5365 27.2602 22.4996 27.1863 22.4626C26.0228 21.9455 24.9146 21.3545 23.8434 20.6711C23.3078 20.3202 22.7722 19.9693 22.2736 19.5815C22.2182 19.5445 22.1812 19.5076 22.1258 19.4706C22.1812 19.5261 22.4397 19.6923 22.1258 19.4706C22.0149 19.3783 21.8857 19.286 21.7749 19.1936C21.5163 18.9904 21.2762 18.7688 21.0361 18.5472C20.5744 18.1224 20.1127 17.6791 19.6879 17.2174C19.2446 16.7372 18.8567 16.2201 18.4319 15.7399C18.6905 16.0354 18.3766 15.666 18.3212 15.5737C18.2289 15.4444 18.1365 15.3336 18.0442 15.2043C17.841 14.9273 17.6563 14.6502 17.4716 14.3732C17.1022 13.8191 16.7698 13.2466 16.4373 12.674C15.7909 11.529 15.2184 10.3469 14.6828 9.12799C14.6643 9.07258 14.6274 9.01717 14.6089 8.96176C14.5904 8.90636 14.5535 8.85095 14.5351 8.79554C14.6089 8.98023 14.6273 8.9987 14.5719 8.86942C14.4981 8.7032 14.4242 8.5185 14.3504 8.35228C14.2211 8.01983 14.0918 7.68741 13.9625 7.35497C13.7039 6.67161 13.4453 5.96978 13.2052 5.28642C12.7066 3.86431 12.2448 2.4422 11.7831 1.02008C11.5615 0.336729 10.8043 -0.180395 10.084 0.0597022C9.34524 0.262861 8.82811 1.00162 9.0682 1.74038C10.7304 6.93018 12.4665 12.2862 15.6986 16.7372C17.3423 19.0089 19.3185 20.9666 21.6456 22.5734C23.8434 24.0879 26.2998 25.233 28.8301 26.0641C31.7112 27.006 34.7216 27.5231 37.7506 27.6894C37.5105 26.8213 37.2889 25.9717 37.0488 25.1037C32.8563 27.1907 29.9382 31.3462 28.6639 35.7973C27.8882 38.5122 27.925 41.338 28.239 44.1083C28.3314 44.884 28.4237 45.6413 28.5345 46.417C28.553 46.6017 28.5899 46.7679 28.6084 46.9525C28.6269 47.0264 28.6269 47.1003 28.6454 47.1742C28.7008 47.5251 28.6084 46.9526 28.6454 47.1926C28.7008 47.5436 28.7377 47.9129 28.7931 48.2639C28.9224 49.3535 29.0517 50.4432 29.0701 51.5329C29.0886 52.364 29.0701 53.1951 29.0886 54.0262C29.1255 55.3375 29.2733 56.6488 29.458 57.9601C30.3445 57.72 31.231 57.4614 32.136 57.2213C30.7139 52.1978 27.7588 47.6544 23.8803 44.2007C20.0018 40.7285 15.1999 38.1982 10.1025 37.1455C7.25826 36.5545 4.30322 36.3698 1.42205 36.7392C1.66214 37.6072 1.88374 38.4568 2.12383 39.3248C6.66721 36.8315 9.73305 32.3436 11.3399 27.5047C12.171 24.9929 12.5404 22.3888 12.7435 19.7477C12.9836 16.8296 13.0575 13.9115 12.9467 10.9934C12.8174 7.65046 12.4665 4.30757 11.7831 1.03855C11.6353 0.336724 10.7674 -0.143462 10.084 0.0781667C9.28983 0.281326 8.92045 0.983149 9.0682 1.74038Z" fill="#FBD952"/>
</svg>
