<svg width="44" height="60" viewBox="0 0 44 60" fill="none" xmlns="http://www.w3.org/2000/svg">
<path d="M9.98889 1.74367C10.1516 2.42831 10.2941 3.11295 10.4161 3.7976C10.4772 4.13067 10.5382 4.48224 10.5992 4.83381C10.6196 4.94483 10.7212 5.46296 10.6398 5.05587C10.6805 5.25941 10.701 5.46295 10.7213 5.64799C10.9044 7.05428 11.0468 8.47908 11.1282 9.90388C11.2909 12.772 11.2705 15.6586 11.0467 18.5082C10.9857 19.2113 10.9247 19.9145 10.8636 20.6362C10.823 20.9507 10.8026 21.2838 10.7619 21.5983C10.7416 21.7464 10.7213 21.8944 10.7009 22.0609C10.7009 22.135 10.6806 22.209 10.6806 22.2645C10.6602 22.3755 10.6806 22.32 10.7009 22.098C10.7009 22.1535 10.6806 22.209 10.6806 22.2645C10.4975 23.4488 10.2127 24.6145 9.8668 25.7617C9.68371 26.3353 9.48026 26.909 9.25648 27.4641C9.13441 27.7417 9.03265 28.0192 8.91059 28.2968C8.89024 28.3708 8.84958 28.4263 8.82923 28.5003C8.9513 28.1487 8.89028 28.3523 8.8496 28.4448C8.76822 28.5928 8.70717 28.7594 8.62579 28.9074C8.0765 29.9991 7.44583 31.0353 6.69309 32.0346C6.48965 32.3121 6.26593 32.5897 6.04214 32.8487C5.98111 32.9227 5.859 33.0153 6.10313 32.7747C6.0421 32.8487 5.96072 32.9228 5.89969 32.9968C5.77763 33.1263 5.67587 33.2558 5.5538 33.3853C5.08589 33.885 4.59767 34.3475 4.06872 34.8101C3.80424 35.0322 3.53977 35.2542 3.25495 35.4763C3.11254 35.5873 2.94977 35.6798 2.8277 35.7909C3.09218 35.5503 2.99052 35.6798 2.8888 35.7538C2.80742 35.8093 2.72598 35.8649 2.62426 35.9204C2.03428 36.309 1.40367 36.679 0.752659 36.9936C0.183022 37.2712 -0.142564 37.9928 0.060878 38.5664C0.142255 38.7885 0.264399 39.0105 0.447497 39.1771C0.671282 39.3991 1.17985 39.6212 1.5257 39.5842C2.88876 39.4361 4.25183 39.3621 5.61489 39.3991C6.28625 39.4176 6.93722 39.4546 7.60858 39.5101C7.77134 39.5286 7.95443 39.5472 8.11719 39.5657C8.23925 39.5842 8.84958 39.6582 8.32063 39.5842C8.66648 39.6397 9.01235 39.6767 9.3582 39.7322C10.6806 39.9357 12.0029 40.2318 13.2846 40.6019C13.9356 40.7869 14.5866 40.9905 15.2173 41.231C15.3597 41.2865 15.4818 41.3235 15.6242 41.379C15.7055 41.416 15.787 41.4345 15.8683 41.4715C15.4411 41.3235 15.7259 41.416 15.8276 41.453C16.1531 41.5826 16.4583 41.7121 16.7838 41.8416C18.0248 42.3782 19.2251 42.9704 20.3644 43.6365C20.934 43.9696 21.4834 44.3027 22.0123 44.6727C22.1547 44.7653 22.297 44.8578 22.4395 44.9503C22.5005 45.0058 22.5819 45.0428 22.6429 45.0983C22.3174 44.8763 22.4598 44.9688 22.5412 45.0243C22.8463 45.2464 23.1312 45.4499 23.416 45.6719C24.4332 46.4491 25.4097 47.3003 26.3048 48.1885C26.7728 48.6511 27.2204 49.1322 27.6679 49.6318C27.7493 49.7428 27.851 49.8353 27.9324 49.9463C27.6069 49.5948 27.9934 50.0204 28.0545 50.1129C28.2579 50.3719 28.4613 50.631 28.6648 50.89C29.5192 52.0188 30.2924 53.203 30.9434 54.4243C31.1061 54.7388 31.2688 55.0534 31.4113 55.3495C31.5333 55.6085 31.2688 55.0349 31.3909 55.3125C31.4316 55.405 31.4723 55.516 31.513 55.6085C31.574 55.7566 31.635 55.9046 31.6961 56.0526C31.9809 56.7188 32.225 57.4034 32.4285 58.0881C32.6522 58.7912 33.5271 59.2908 34.3002 59.0503C34.6664 58.9392 35.0326 58.7357 35.2156 58.4211C35.4191 58.0695 35.4394 57.7365 35.3784 57.3479C35.3784 57.3294 35.3173 56.9778 35.358 57.1999C35.3987 57.4219 35.3377 57.0889 35.3377 57.0703C35.3174 56.9408 35.297 56.8113 35.2766 56.6818C35.236 56.3857 35.1953 56.0896 35.1749 55.7936C35.1342 55.331 35.0935 54.8684 35.0732 54.4058C35.0529 53.6841 35.0732 52.944 35.0528 52.2223C35.0528 51.3156 34.9918 50.4274 34.8901 49.5207C34.8087 48.8361 34.707 48.1515 34.6053 47.4668C34.5443 47.0597 34.4833 46.6527 34.4222 46.2271C34.4019 46.153 34.4019 46.079 34.3815 46.005C34.3205 45.6534 34.4222 46.2271 34.3815 46.005C34.3612 45.8015 34.3205 45.6164 34.3002 45.4129C34.1171 44.0991 33.9543 42.7668 33.9136 41.4345C33.8933 40.7499 33.8932 40.0838 33.9543 39.3991C33.9746 39.0846 33.995 38.7515 34.056 38.4369C33.9746 38.8255 34.0967 38.2519 34.0967 38.1779C34.1374 37.9928 34.1578 37.8263 34.1984 37.6412C34.3205 37.0676 34.5036 36.5125 34.707 35.9759C34.7884 35.7353 34.8901 35.4948 34.9918 35.2542C35.0325 35.1432 35.0733 35.0322 35.1343 34.9397C35.1546 34.8657 35.1953 34.8101 35.2156 34.7361C35.3581 34.4401 35.1546 34.8842 35.2156 34.7546C35.7039 33.7739 36.2532 32.8302 36.9042 31.942C37.0873 31.7015 37.3517 31.4424 37.5145 31.1834C37.4942 31.2019 37.2908 31.4424 37.4535 31.2574C37.5145 31.1834 37.5756 31.1279 37.6366 31.0539C37.7383 30.9428 37.84 30.8318 37.9417 30.7208C38.369 30.2767 38.8166 29.8511 39.3048 29.444C39.549 29.2405 39.8134 29.0369 40.0779 28.8334C40.2813 28.6854 40.0169 28.8889 39.9965 28.8889C40.0779 28.8519 40.139 28.7779 40.2203 28.7409C40.3627 28.6484 40.5051 28.5558 40.6272 28.4633C41.1765 28.1117 41.7461 27.8157 42.3565 27.5381C42.9261 27.2791 43.2516 26.5204 43.0482 25.9653C42.8244 25.3547 42.275 24.9846 41.5833 24.9476C40.8713 24.9106 40.1592 24.855 39.4472 24.781C39.2844 24.7625 39.1217 24.744 38.959 24.7255C38.8776 24.7255 38.7962 24.6885 38.7148 24.6885C39.1217 24.67 38.8572 24.707 38.7351 24.6885C38.369 24.633 38.0028 24.596 37.6569 24.5405C36.2735 24.3184 34.9105 24.0409 33.5881 23.6893C32.9168 23.5043 32.2657 23.3192 31.6147 23.0972C31.3095 22.9862 31.0043 22.8936 30.6788 22.7826C30.6382 22.7641 30.211 22.6161 30.211 22.6161C30.272 22.6346 30.333 22.6716 30.394 22.6901C30.333 22.6716 30.272 22.6346 30.211 22.6161C30.1296 22.5791 30.0279 22.542 29.9465 22.505C28.6648 21.9869 27.4442 21.3948 26.2642 20.7102C25.6742 20.3586 25.0843 20.007 24.535 19.6184C24.4739 19.5814 24.4332 19.5444 24.3722 19.5074C24.4332 19.5629 24.718 19.7295 24.3722 19.5074C24.2501 19.4149 24.1077 19.3224 23.9856 19.2299C23.7008 19.0263 23.4363 18.8043 23.1719 18.5822C22.6633 18.1566 22.1547 17.7125 21.6868 17.2499C21.1985 16.7688 20.7712 16.2507 20.3033 15.7696C20.5881 16.0657 20.2424 15.6956 20.1813 15.6031C20.0796 15.4736 19.9779 15.3625 19.8762 15.233C19.6524 14.9555 19.4489 14.6779 19.2455 14.4003C18.8386 13.8452 18.4724 13.2716 18.1062 12.698C17.3941 11.5507 16.7635 10.3665 16.1735 9.14523C16.1532 9.08972 16.1125 9.0342 16.0921 8.97869C16.0718 8.92318 16.0311 8.86766 16.0108 8.81215C16.0922 8.99719 16.1124 9.0157 16.0514 8.88617C15.97 8.71964 15.8887 8.53459 15.8073 8.36805C15.6649 8.03498 15.5225 7.70193 15.3801 7.36886C15.0953 6.68421 14.8104 5.98105 14.546 5.29641C13.9967 3.87161 13.488 2.44681 12.9794 1.02201C12.7353 0.337365 11.9012 -0.180736 11.1078 0.059815C10.2941 0.263358 9.72441 1.00351 9.98889 1.74367C11.8199 6.94326 13.7322 12.3094 17.2924 16.7688C19.1031 19.0448 21.2799 21.0062 23.8433 22.6161C26.2642 24.1334 28.97 25.2806 31.7571 26.1133C34.9308 27.057 38.2469 27.5751 41.5833 27.7417C41.3189 26.872 41.0748 26.0208 40.8103 25.1511C36.1922 27.2421 32.9778 31.4054 31.5741 35.8649C30.7196 38.5849 30.7602 41.416 31.1061 44.1916C31.2078 44.9688 31.3096 45.7275 31.4316 46.5046C31.452 46.6897 31.4926 46.8562 31.513 47.0412C31.5333 47.1152 31.5334 47.1893 31.5537 47.2633C31.6147 47.6149 31.513 47.0412 31.5537 47.2818C31.6147 47.6334 31.6554 48.0034 31.7164 48.355C31.8588 49.4467 32.0012 50.5385 32.0216 51.6302C32.0419 52.4629 32.0216 53.2955 32.0419 54.1282C32.0826 55.442 32.2454 56.7558 32.4488 58.0696C33.4253 57.829 34.4019 57.57 35.3987 57.3294C33.8322 52.2963 30.5771 47.7444 26.3048 44.2842C22.0326 40.8054 16.7432 38.2704 11.1282 37.2156C7.99518 36.6235 4.74011 36.4385 1.56643 36.8086C1.8309 37.6783 2.07499 38.5294 2.33946 39.3991C7.34413 36.9011 10.7212 32.4046 12.4912 27.5566C13.4067 25.0401 13.8136 22.431 14.0374 19.785C14.3018 16.8614 14.3832 13.9377 14.2612 11.0141C14.1188 7.66491 13.7322 4.3157 12.9794 1.04051C12.8167 0.33736 11.8606 -0.143733 11.1078 0.0783143C10.233 0.281857 9.82614 0.985006 9.98889 1.74367Z" fill="#F277C4"/>
</svg>
